{
	"asset":{
		"generator":"Khronos glTF Blender I/O v3.5.30",
		"version":"2.0"
	},
	"scene":0,
	"scenes":[
		{
			"name":"Scene",
			"nodes":[
				1,
				2
			]
		}
	],
	"nodes":[
		{
			"mesh":0,
			"name":"element_03",
			"translation":[
				0.02563050203025341,
				0.00016900058835744858,
				-0.0023475000634789467
			]
		},
		{
			"children":[
				0
			],
			"mesh":1,
			"name":"element_02",
			"translation":[
				-0.02997700124979019,
				0.005328999366611242,
				0.0029269990045577288
			]
		},
		{
			"mesh":2,
			"name":"element_01"
		}
	],
	"materials":[
		{
			"doubleSided":true,
			"name":"M_test_03",
			"pbrMetallicRoughness":{
				"baseColorFactor":[
					0.03070237673819065,
					0.8000000715255737,
					0,
					1
				],
				"metallicFactor":0,
				"roughnessFactor":0.5
			}
		},
		{
			"doubleSided":true,
			"name":"M_test_02",
			"pbrMetallicRoughness":{
				"baseColorFactor":[
					0.12411656975746155,
					0.6067104339599609,
					0.8000000715255737,
					1
				],
				"metallicFactor":0,
				"roughnessFactor":0.5
			}
		},
		{
			"doubleSided":true,
			"name":"M_test_01",
			"pbrMetallicRoughness":{
				"baseColorFactor":[
					0,
					0,
					0,
					1
				],
				"roughnessFactor":0.20000000298023224
			}
		}
	],
	"meshes":[
		{
			"name":"Mesh_15.001",
			"primitives":[
				{
					"attributes":{
						"POSITION":0,
						"TEXCOORD_0":1,
						"NORMAL":2
					},
					"indices":3,
					"material":0
				}
			]
		},
		{
			"name":"Mesh_12.001",
			"primitives":[
				{
					"attributes":{
						"POSITION":4,
						"TEXCOORD_0":5,
						"NORMAL":6
					},
					"indices":7,
					"material":1
				}
			]
		},
		{
			"name":"Mesh_21.001",
			"primitives":[
				{
					"attributes":{
						"POSITION":8,
						"TEXCOORD_0":9,
						"NORMAL":10
					},
					"indices":11,
					"material":2
				}
			]
		}
	],
	"accessors":[
		{
			"bufferView":0,
			"componentType":5126,
			"count":7746,
			"max":[
				0.021718498319387436,
				0.003632000181823969,
				0.001997500192373991
			],
			"min":[
				-0.02331950142979622,
				-0.0039059999398887157,
				-0.0006104999920353293
			],
			"type":"VEC3"
		},
		{
			"bufferView":1,
			"componentType":5126,
			"count":7746,
			"type":"VEC2"
		},
		{
			"bufferView":2,
			"componentType":5126,
			"count":7746,
			"type":"VEC3"
		},
		{
			"bufferView":3,
			"componentType":5123,
			"count":38844,
			"type":"SCALAR"
		},
		{
			"bufferView":4,
			"componentType":5126,
			"count":4968,
			"max":[
				0.04745199903845787,
				0.004011999815702438,
				0
			],
			"min":[
				-0.00473799929022789,
				-0.004533999599516392,
				-0.0015569999814033508
			],
			"type":"VEC3"
		},
		{
			"bufferView":5,
			"componentType":5126,
			"count":4968,
			"type":"VEC2"
		},
		{
			"bufferView":6,
			"componentType":5126,
			"count":4968,
			"type":"VEC3"
		},
		{
			"bufferView":7,
			"componentType":5123,
			"count":24444,
			"type":"SCALAR"
		},
		{
			"bufferView":8,
			"componentType":5126,
			"count":25221,
			"max":[
				0.024140000343322754,
				0.010049999691545963,
				0.004029000177979469
			],
			"min":[
				-0.034728001803159714,
				0.0005510000046342611,
				-0.005098000168800354
			],
			"type":"VEC3"
		},
		{
			"bufferView":9,
			"componentType":5126,
			"count":25221,
			"type":"VEC2"
		},
		{
			"bufferView":10,
			"componentType":5126,
			"count":25221,
			"type":"VEC3"
		},
		{
			"bufferView":11,
			"componentType":5123,
			"count":145302,
			"type":"SCALAR"
		}
	],
	"bufferViews":[
		{
			"buffer":0,
			"byteLength":92952,
			"byteOffset":0,
			"target":34962
		},
		{
			"buffer":0,
			"byteLength":61968,
			"byteOffset":92952,
			"target":34962
		},
		{
			"buffer":0,
			"byteLength":92952,
			"byteOffset":154920,
			"target":34962
		},
		{
			"buffer":0,
			"byteLength":77688,
			"byteOffset":247872,
			"target":34963
		},
		{
			"buffer":0,
			"byteLength":59616,
			"byteOffset":325560,
			"target":34962
		},
		{
			"buffer":0,
			"byteLength":39744,
			"byteOffset":385176,
			"target":34962
		},
		{
			"buffer":0,
			"byteLength":59616,
			"byteOffset":424920,
			"target":34962
		},
		{
			"buffer":0,
			"byteLength":48888,
			"byteOffset":484536,
			"target":34963
		},
		{
			"buffer":0,
			"byteLength":302652,
			"byteOffset":533424,
			"target":34962
		},
		{
			"buffer":0,
			"byteLength":201768,
			"byteOffset":836076,
			"target":34962
		},
		{
			"buffer":0,
			"byteLength":302652,
			"byteOffset":1037844,
			"target":34962
		},
		{
			"buffer":0,
			"byteLength":290604,
			"byteOffset":1340496,
			"target":34963
		}
	],
	"buffers":[
		{
			"byteLength":1631100,
			"uri":"data:application/octet-stream;base64,"
		}
	]
}
